<?xml version="1.0" encoding="utf-8"?>
<!-- Generator: Adobe Illustrator 25.3.1, SVG Export Plug-In . SVG Version: 6.00 Build 0)  -->
<svg version="1.1" xmlns="http://www.w3.org/2000/svg" xmlns:xlink="http://www.w3.org/1999/xlink" x="0px" y="0px"
	 viewBox="0 0 500 500" style="enable-background:new 0 0 500 500;" xml:space="preserve">
<style type="text/css">
	.st0{display:none;}
	.st1{display:inline;fill:none;stroke:url(#SVGID_1_);stroke-width:16;stroke-miterlimit:10;}
	.st2{display:inline;fill:none;stroke:url(#SVGID_2_);stroke-width:16;stroke-miterlimit:10;}
	.st3{fill:url(#bg_1_);}
	.st4{fill:none;stroke:url(#SVGID_3_);stroke-width:16;stroke-miterlimit:10;}
	.st5{fill:none;stroke:url(#SVGID_4_);stroke-width:16;stroke-miterlimit:10;}
</style>
<g id="Layer_1" class="st0">
	<linearGradient id="SVGID_1_" gradientUnits="userSpaceOnUse" x1="75.1118" y1="424.8882" x2="424.8882" y2="75.1118">
		<stop  offset="0" style="stop-color:#9D2BAB"/>
		<stop  offset="0.5" style="stop-color:#D95766"/>
		<stop  offset="1" style="stop-color:#F3B562"/>
	</linearGradient>
	<path class="st1" d="M386.32,421H113.68c-41.52,0-75.18-33.66-75.18-75.18V154.18C38.5,112.66,72.16,79,113.68,79h272.65
		c41.52,0,75.18,33.66,75.18,75.18v191.65C461.5,387.34,427.84,421,386.32,421z"/>
	<linearGradient id="SVGID_2_" gradientUnits="userSpaceOnUse" x1="116.3028" y1="372.0438" x2="341.0906" y2="147.256">
		<stop  offset="7.537689e-03" style="stop-color:#9D2BAB"/>
		<stop  offset="0.5" style="stop-color:#D95766"/>
		<stop  offset="1" style="stop-color:#F3B562"/>
	</linearGradient>
	<path class="st2" d="M352.27,236.34v-6.07c-2.88-8.48-10.9-14.58-20.37-14.58c-11.24,0-20.46,8.6-21.43,19.59
		c-0.06,0.63-0.09,1.27-0.09,1.93c0,0.65,0.03,1.29,0.09,1.93l0,61.2c-0.06,0.65-0.09,1.32-0.09,2c0,0.68,0.03,1.34,0.09,1.99
		c1.01,10.63,9.96,18.95,20.85,18.95c9.6,0,17.69-6.46,20.16-15.28c0.52-1.8,0.78-3.7,0.78-5.66v-5.17
		c1.06-3.11,2.83-5.89,5.12-8.17c2.62-2.62,5.92-4.55,9.62-5.5c1.71-0.45,3.5-0.68,5.34-0.68c8.86,0,16.46,5.42,19.64,13.14v18.11
		c-3.84,20.98-18.37,38.24-37.74,45.92c-7,2.78-14.63,4.3-22.63,4.3c-9.64,0-18.75-2.21-26.86-6.17
		c-18.1-8.81-31.21-26.27-33.98-46.99l0-72.56c0.01-0.36,0.02-0.71,0.02-1.08c0-0.37-0.01-0.72-0.02-1.08
		c-0.56-11.06-9.71-19.87-20.92-19.87c-10.89,0-19.84,8.32-20.85,18.95c-0.06,0.66-0.1,1.32-0.1,2s0.04,1.34,0.1,2l0,104.68
		c0,10.96-8.88,19.85-19.85,19.85c-10.97,0-19.85-8.89-19.85-19.85l0-101.67c0.39-1.61,0.6-3.28,0.6-5c0-1.72-0.2-3.4-0.6-5
		c-2.24-9.31-10.63-16.23-20.63-16.23c-10.55,0-19.29,7.68-20.94,17.75c-0.2,1.14-0.29,2.29-0.29,3.48c0,1.18,0.09,2.34,0.29,3.48
		l0,103.25c0,10.97-8.88,19.85-19.85,19.85c-10.97,0-19.85-8.88-19.85-19.85l0-188.64c0-10.97,8.88-19.87,19.85-19.87
		c5.49,0,10.46,2.23,14.03,5.82c3.61,3.59,5.82,8.56,5.82,14.04v23.16c6.51-2.45,13.57-3.78,20.94-3.78
		c7.25,0,14.21,1.29,20.63,3.67c7.54,2.77,14.36,7.03,20.1,12.41c5.63-5.27,12.27-9.44,19.6-12.22c6.57-2.49,13.69-3.86,21.14-3.86
		c7.25,0,14.2,1.29,20.63,3.67c7.78,2.86,14.8,7.3,20.68,12.95c5.45-5.25,11.9-9.44,19.02-12.32c6.88-2.78,14.4-4.3,22.28-4.3
		c6.83,0,13.39,1.15,19.51,3.26c21.16,7.32,36.93,26.21,39.72,49.11v13.21c-1.92,9.08-9.98,15.89-19.64,15.89
		c-0.22,0-0.42,0-0.64-0.01c-7.31-0.23-13.63-4.37-16.96-10.4c-0.76-1.37-1.37-2.86-1.78-4.42
		C352.51,239.92,352.27,238.17,352.27,236.34z"/>
</g>
<g id="Layer_2">
	<linearGradient id="bg_1_" gradientUnits="userSpaceOnUse" x1="-45.7532" y1="420.7532" x2="545.7532" y2="79.2468">
		<stop  offset="0" style="stop-color:#2977B7"/>
		<stop  offset="0.5" style="stop-color:#C6137D"/>
		<stop  offset="0.995" style="stop-color:#FFC462"/>
	</linearGradient>
	<rect id="bg_00000003788146354672421810000006892525536755650236_" x="0" class="st3" width="500" height="500"/>
	<linearGradient id="SVGID_3_" gradientUnits="userSpaceOnUse" x1="30.5" y1="250" x2="469.5" y2="250">
		<stop  offset="0" style="stop-color:#FFFFFF"/>
		<stop  offset="1" style="stop-color:#FFFFFF"/>
	</linearGradient>
	<path class="st4" d="M386.32,421H113.68c-41.52,0-75.18-33.66-75.18-75.18V154.18C38.5,112.66,72.16,79,113.68,79h272.65
		c41.52,0,75.18,33.66,75.18,75.18v191.65C461.5,387.34,427.84,421,386.32,421z"/>
	<linearGradient id="SVGID_4_" gradientUnits="userSpaceOnUse" x1="100.0147" y1="250" x2="399.9853" y2="250">
		<stop  offset="0" style="stop-color:#FFFFFF"/>
		<stop  offset="0.9925" style="stop-color:#FFFFFF"/>
	</linearGradient>
	<path class="st5" d="M352.27,236.34v-6.07c-2.88-8.48-10.9-14.58-20.37-14.58c-11.24,0-20.46,8.6-21.43,19.59
		c-0.06,0.63-0.09,1.27-0.09,1.93c0,0.65,0.03,1.29,0.09,1.93l0,61.2c-0.06,0.65-0.09,1.32-0.09,2c0,0.68,0.03,1.34,0.09,1.99
		c1.01,10.63,9.96,18.95,20.85,18.95c9.6,0,17.69-6.46,20.16-15.28c0.52-1.8,0.78-3.7,0.78-5.66v-5.17
		c1.06-3.11,2.83-5.89,5.12-8.17c2.62-2.62,5.92-4.55,9.62-5.5c1.71-0.45,3.5-0.68,5.34-0.68c8.86,0,16.46,5.42,19.64,13.14v18.11
		c-3.84,20.98-18.37,38.24-37.74,45.92c-7,2.78-14.63,4.3-22.63,4.3c-9.64,0-18.75-2.21-26.86-6.17
		c-18.1-8.81-31.21-26.27-33.98-46.99l0-72.56c0.01-0.36,0.02-0.71,0.02-1.08c0-0.37-0.01-0.72-0.02-1.08
		c-0.56-11.06-9.71-19.87-20.92-19.87c-10.89,0-19.84,8.32-20.85,18.95c-0.06,0.66-0.1,1.32-0.1,2s0.04,1.34,0.1,2l0,104.68
		c0,10.96-8.88,19.85-19.85,19.85c-10.97,0-19.85-8.89-19.85-19.85l0-101.67c0.39-1.61,0.6-3.28,0.6-5c0-1.72-0.2-3.4-0.6-5
		c-2.24-9.31-10.63-16.23-20.63-16.23c-10.55,0-19.29,7.68-20.94,17.75c-0.2,1.14-0.29,2.29-0.29,3.48c0,1.18,0.09,2.34,0.29,3.48
		l0,103.25c0,10.97-8.88,19.85-19.85,19.85c-10.97,0-19.85-8.88-19.85-19.85l0-188.64c0-10.97,8.88-19.87,19.85-19.87
		c5.49,0,10.46,2.23,14.03,5.82c3.61,3.59,5.82,8.56,5.82,14.04v23.16c6.51-2.45,13.57-3.78,20.94-3.78
		c7.25,0,14.21,1.29,20.63,3.67c7.54,2.77,14.36,7.03,20.1,12.41c5.63-5.27,12.27-9.44,19.6-12.22c6.57-2.49,13.69-3.86,21.14-3.86
		c7.25,0,14.2,1.29,20.63,3.67c7.78,2.86,14.8,7.3,20.68,12.95c5.45-5.25,11.9-9.44,19.02-12.32c6.88-2.78,14.4-4.3,22.28-4.3
		c6.83,0,13.39,1.15,19.51,3.26c21.16,7.32,36.93,26.21,39.72,49.11v13.21c-1.92,9.08-9.98,15.89-19.64,15.89
		c-0.22,0-0.42,0-0.64-0.01c-7.31-0.23-13.63-4.37-16.96-10.4c-0.76-1.37-1.37-2.86-1.78-4.42
		C352.51,239.92,352.27,238.17,352.27,236.34z"/>
</g>
</svg>
